<svg xmlns="http://www.w3.org/2000/svg" width="1000" height="560" viewBox="0 0 1000 560"><rect width="100%" height="100%" fill="white"/><text x="500" y="42" text-anchor="middle" font-family="Arial" font-size="25" font-weight="bold">Fig. 25. Output-Stealthiness / Timing Observability</text><line x1="160" y1="460" x2="900" y2="460" stroke="#333" stroke-width="2"/><line x1="160" y1="460" x2="160" y2="120" stroke="#333" stroke-width="2"/><polyline fill="none" stroke="#333" stroke-width="4" points="160,120 345,120 530,120 715,120 900,120"/><polyline fill="none" stroke="#777" stroke-width="3" stroke-dasharray="8,6" points="160,460 345,460 530,460 715,460 900,120"/><g font-family="Arial" font-size="14" text-anchor="middle"><text x="160" y="488">T1</text><text x="345" y="488">T2</text><text x="530" y="488">T3</text><text x="715" y="488">T4</text><text x="900" y="488">T5</text></g><line x1="235" y1="85" x2="275" y2="85" stroke="#333" stroke-width="4"/><text x="285" y="90" font-family="Arial" font-size="15">Detection rate</text><line x1="570" y1="85" x2="610" y2="85" stroke="#777" stroke-width="3" stroke-dasharray="8,6"/><text x="620" y="90" font-family="Arial" font-size="15">Timing-visible rate</text><text x="55" y="290" transform="rotate(-90 55 290)" text-anchor="middle" font-family="Arial" font-size="16">Rate across 10 workloads</text><text x="500" y="540" text-anchor="middle" font-family="Arial" font-size="13">Output-stealthy = expected top-1 class retained; proxy across T1-T5, not payload-severity sweep.</text></svg>